<svg width="285" height="342" viewBox="0 0 285 342" fill="none" xmlns="http://www.w3.org/2000/svg">
<path d="M18.4302 295H56.0748V151.088L18.4302 113.443V295ZM135.677 150.696L18.4302 33.8405V86.7782L56.0748 124.423L135.677 204.026L149.794 189.517L161.95 177.361L213.32 126.383V295H250.964V35.409L135.677 150.696Z" fill="black"/>
<path d="M256.24 23.04V25.04H260.32V36.98H262.68V25.04H266.88V23.04H256.24ZM282.614 37H280.394L280.414 29.82L280.474 28.2L279.414 29.42L275.754 33.3L271.834 29.68L270.694 28.32L270.734 30.22V37H268.454V22.64L275.754 30.04L282.614 22.64V37Z" fill="black"/>
</svg>
