<svg width="554" height="342" viewBox="0 0 554 342" fill="none" xmlns="http://www.w3.org/2000/svg">
<path d="M18.4302 295H56.0748V151.088L18.4302 113.443V295ZM135.677 150.696L18.4302 33.8405V86.7782L56.0748 124.423L135.677 204.026L149.794 189.517L161.95 177.361L213.32 126.383V295H250.964V35.409L135.677 150.696Z" fill="white"/>
<path d="M300.751 148.624C285.375 148.624 272.996 161.476 272.996 177.246C272.996 193.015 285.375 205.867 300.751 205.867C316.047 205.867 328.426 193.015 328.426 177.246C328.426 161.476 316.047 148.624 300.751 148.624ZM300.751 197.667C290.264 197.667 281.827 188.521 281.827 177.246C281.827 165.97 290.264 156.824 300.751 156.824C311.237 156.824 319.753 165.97 319.753 177.246C319.753 188.521 311.237 197.667 300.751 197.667ZM341.527 204.685H350.279V175.826L350.201 168.967L355.641 174.801L387.575 205.71V149.885H378.507V177.088L378.586 185.525L371.963 178.665L341.527 148.624V204.685ZM436.215 157.218V149.806H402.862V205H436.215V197.588H410.984V188.127H432.588V180.715H410.984V157.218H436.215ZM493.526 149.885L476.81 177.167L474.287 181.03L474.445 187.023V205H465.377V186.313V181.03L462.46 176.299L446.138 149.885H455.442L466.718 168.02L469.793 173.145L472.868 168.099L484.064 149.885H493.526ZM310.291 294.921H319.122L294.758 238.466L270.552 294.921H279.383C279.383 294.921 280.96 290.979 282.852 286.09H306.664C308.714 290.979 310.291 294.921 310.291 294.921ZM294.916 278.757C286.795 278.757 285.691 278.915 285.691 278.915C285.691 278.915 287.031 275.84 287.583 274.421C288.845 271.346 289.87 268.586 290.5 266.851C293.181 260.228 294.916 255.655 294.916 255.655C294.916 255.655 296.335 260.149 299.016 266.851C299.568 268.428 300.751 271.109 301.933 274.421C302.485 275.84 303.905 278.915 303.905 278.915C303.905 278.915 302.958 278.757 294.916 278.757ZM329.669 294.685H338.421V265.826L338.343 258.967L343.783 264.801L375.717 295.71V239.885H366.649V267.088L366.728 275.525L360.105 268.665L329.669 238.624V294.685ZM426.013 294.921H434.844L410.48 238.466L386.274 294.921H395.105C395.105 294.921 396.681 290.979 398.574 286.09H422.386C424.436 290.979 426.013 294.921 426.013 294.921ZM410.638 278.757C402.516 278.757 401.412 278.915 401.412 278.915C401.412 278.915 402.753 275.84 403.305 274.421C404.566 271.346 405.591 268.586 406.222 266.851C408.903 260.228 410.638 255.655 410.638 255.655C410.638 255.655 412.057 260.149 414.738 266.851C415.29 268.428 416.472 271.109 417.655 274.421C418.207 275.84 419.626 278.915 419.626 278.915C419.626 278.915 418.68 278.757 410.638 278.757ZM501.136 266.536H477.719V274.263H491.517C489.152 282.857 481.74 287.983 473.224 287.983C462.422 287.983 453.749 278.836 453.749 267.482C453.749 256.207 462.422 247.139 473.224 247.139C481.346 247.139 486.55 250.766 490.019 253.999L496.879 248.637C491.754 243.591 485.288 238.545 473.224 238.545C457.534 238.545 444.76 251.634 444.76 267.482C444.76 283.488 457.534 296.262 473.224 296.262C489.861 296.262 501.136 283.488 501.136 267.482C501.136 267.009 501.136 267.088 501.136 266.536ZM549.088 247.218V239.806H515.735V295H549.088V287.588H523.856V278.127H545.461V270.715H523.856V247.218H549.088Z" fill="white"/>
<path d="M256.24 23.04V25.04H260.32V36.98H262.68V25.04H266.88V23.04H256.24ZM282.614 37H280.394L280.414 29.82L280.474 28.2L279.414 29.42L275.754 33.3L271.834 29.68L270.694 28.32L270.734 30.22V37H268.454V22.64L275.754 30.04L282.614 22.64V37Z" fill="white"/>
</svg>
